<?xml version="1.0" encoding="UTF-8" standalone="no" ?>
<!DOCTYPE svg PUBLIC "-//W3C//DTD SVG 1.1//EN" "http://www.w3.org/Graphics/SVG/1.1/DTD/svg11.dtd">
<svg xmlns="http://www.w3.org/2000/svg" xmlns:xlink="http://www.w3.org/1999/xlink" version="1.1" width="599" height="117" viewBox="0 0 599 117" xml:space="preserve">
<desc>Created with Fabric.js 3.6.6</desc>
<defs>
</defs>
<g transform="matrix(1 0 0 1 305 62)"  >
<g style=""   >
		<g transform="matrix(1 0 0 1 -246.2 -39.5)"  >
<path style="stroke: none; stroke-width: 1; stroke-dasharray: none; stroke-linecap: butt; stroke-dashoffset: 0; stroke-linejoin: miter; stroke-miterlimit: 4; fill: rgb(242,82,56); fill-rule: nonzero; opacity: 1;"  transform=" translate(73.2, -240.5)" d="M -95.7 236.7 l 13.3 -13.3 c 7.1 -7.2 18.7 -7.2 25.9 0 c 0 0 0 0 0 0 l 0 0 l 0.4 0.4 c 7.2 7.1 7.2 18.7 0 25.9 c 0 0 0 0 0 0 l 0 0 l -13.3 13.3 l 0 0 L -95.7 236.7 z" stroke-linecap="round" />
</g>
		<g transform="matrix(1 0 0 1 -210 -3.3)"  >
<path style="stroke: none; stroke-width: 1; stroke-dasharray: none; stroke-linecap: butt; stroke-dashoffset: 0; stroke-linejoin: miter; stroke-miterlimit: 4; fill: rgb(246,135,116); fill-rule: nonzero; opacity: 1;"  transform=" translate(37, -276.7)" d="M -59.5 272.9 l 13.3 -13.3 c 7.1 -7.2 18.7 -7.2 25.9 0 c 0 0 0 0 0 0 l 0 0 l 0.4 0.4 c 7.2 7.1 7.2 18.7 0 25.9 c 0 0 0 0 0 0 l 0 0 l -13.3 13.3 l 0 0 L -59.5 272.9 L -59.5 272.9 z" stroke-linecap="round" />
</g>
		<g transform="matrix(1 0 0 1 -282.5 -3.3)"  >
<path style="stroke: none; stroke-width: 1; stroke-dasharray: none; stroke-linecap: butt; stroke-dashoffset: 0; stroke-linejoin: miter; stroke-miterlimit: 4; fill: rgb(246,135,116); fill-rule: nonzero; opacity: 1;"  transform=" translate(109.5, -276.7)" d="M -132 272.9 l 13.3 -13.3 c 7.1 -7.2 18.7 -7.2 25.9 0 c 0 0 0 0 0 0 l 0 0 l 0.4 0.4 c 7.2 7.1 7.2 18.7 0 25.9 c 0 0 0 0 0 0 l 0 0 l -13.3 13.3 l 0 0 L -132 272.9 z" stroke-linecap="round" />
</g>
		<g transform="matrix(1 0 0 1 -246.2 33)"  >
<path style="stroke: none; stroke-width: 1; stroke-dasharray: none; stroke-linecap: butt; stroke-dashoffset: 0; stroke-linejoin: miter; stroke-miterlimit: 4; fill: rgb(252,211,205); fill-rule: nonzero; opacity: 1;"  transform=" translate(73.2, -313)" d="M -95.7 309.2 l 13.3 -13.3 c 7.1 -7.2 18.7 -7.2 25.9 0 c 0 0 0 0 0 0 l 0 0 l 0.4 0.4 c 7.2 7.1 7.2 18.7 0 25.9 c 0 0 0 0 0 0 l 0 0 l -13.3 13.3 l 0 0 L -95.7 309.2 z" stroke-linecap="round" />
</g>
		<g transform="matrix(1 0 0 1 -129.75 -7.8)"  >
<path style="stroke: none; stroke-width: 1; stroke-dasharray: none; stroke-linecap: butt; stroke-dashoffset: 0; stroke-linejoin: miter; stroke-miterlimit: 4; fill: rgb(48,50,59); fill-rule: nonzero; opacity: 1;"  transform=" translate(-43.25, -272.2)" d="M 47.4 300 h -23 v -25 h 22.9 c 9.1 0 14.6 4.6 14.6 12.4 C 61.9 294.8 56.6 300 47.4 300 L 47.4 300 z M 24.4 244.3 h 21.2 c 7 0 11.7 3.4 11.7 10.3 c 0 5.5 -3.8 10.7 -11.5 10.7 H 24.4 V 244.3 z M 56.6 269.4 c 7.2 -3 11.6 -8.9 11.6 -16.2 c 0 -11.2 -8.9 -18.6 -23 -18.6 H 15.1 c -0.9 0 -1.5 0.7 -1.5 1.6 l 0 0 v 72 c 0 0.9 0.7 1.6 1.6 1.6 h 31.4 c 17.6 0 26.3 -10.3 26.3 -21.2 C 72.7 276.9 65.7 271.1 56.6 269.4 L 56.6 269.4 z" stroke-linecap="round" />
</g>
		<g transform="matrix(1 0 0 1 215.3 5.2)"  >
<path style="stroke: none; stroke-width: 1; stroke-dasharray: none; stroke-linecap: butt; stroke-dashoffset: 0; stroke-linejoin: miter; stroke-miterlimit: 4; fill: rgb(48,50,59); fill-rule: nonzero; opacity: 1;"  transform=" translate(-388.3, -285.2)" d="M 388.3 302 c -9.9 0 -15.2 -7.7 -15.2 -16.8 s 5.3 -16.8 15.2 -16.8 s 15.2 7.7 15.2 16.8 S 398.2 302 388.3 302 z M 388.3 259.4 c -15.7 0 -25.8 11.6 -25.8 25.8 c 0 14.2 10.2 25.8 25.8 25.8 s 25.8 -11.6 25.8 -25.8 C 414.1 271 404 259.4 388.3 259.4 z" stroke-linecap="round" />
</g>
		<g transform="matrix(1 0 0 1 92.3 5.2)"  >
<path style="stroke: none; stroke-width: 1; stroke-dasharray: none; stroke-linecap: butt; stroke-dashoffset: 0; stroke-linejoin: miter; stroke-miterlimit: 4; fill: rgb(48,50,59); fill-rule: nonzero; opacity: 1;"  transform=" translate(-265.3, -285.2)" d="M 265.3 302 c -9.9 0 -15.2 -7.7 -15.2 -16.8 s 5.3 -16.8 15.2 -16.8 c 9.9 0 15.2 7.7 15.2 16.8 S 275.2 302 265.3 302 z M 265.3 259.4 c -15.7 0 -25.8 11.6 -25.8 25.8 c 0 14.2 10.1 25.8 25.8 25.8 s 25.8 -11.6 25.8 -25.8 C 291.1 271 281 259.4 265.3 259.4 z" stroke-linecap="round" />
</g>
		<g transform="matrix(1 0 0 1 154.05 -7.1)"  >
<path style="stroke: none; stroke-width: 1; stroke-dasharray: none; stroke-linecap: butt; stroke-dashoffset: 0; stroke-linejoin: miter; stroke-miterlimit: 4; fill: rgb(48,50,59); fill-rule: nonzero; opacity: 1;"  transform=" translate(-327.05, -272.9)" d="M 341.3 291.8 c -2 5.9 -6.8 10.1 -14.2 10.1 c -2.2 0 -4.3 -0.4 -6.3 -1.2 c -5.5 -2.7 -8.8 -8.9 -8.8 -15.6 c 0 -6.7 3.4 -12.8 8.8 -15.6 c 2 -0.8 4.2 -1.3 6.3 -1.2 c 7.4 0 12.2 4.2 14.2 10.1 C 342.7 282.9 342.7 287.5 341.3 291.8 L 341.3 291.8 z M 329.4 259.4 c -6.3 0 -13.2 1.7 -17.4 7.3 v -30.4 c 0 -0.9 -0.7 -1.6 -1.6 -1.6 l 0 0 l 0 0 l -7.5 0 c -0.9 0 -1.6 0.7 -1.6 1.6 c 0 0 0 0 0 0 l 0 0 v 48.9 c 0 14.2 10.1 25.9 25.7 25.9 s 25.8 -11.6 25.8 -25.8 c 0 -1.8 -0.2 -3.5 -0.5 -5.2 C 350.4 267.4 340.8 259.4 329.4 259.4 L 329.4 259.4 z" stroke-linecap="round" />
</g>
		<g transform="matrix(1 0 0 1 -7.4 5.05)"  >
<path style="stroke: none; stroke-width: 1; stroke-dasharray: none; stroke-linecap: butt; stroke-dashoffset: 0; stroke-linejoin: miter; stroke-miterlimit: 4; fill: rgb(48,50,59); fill-rule: nonzero; opacity: 1;"  transform=" translate(-165.6, -285.05)" d="M 165.6 259.4 c -0.7 0 -1.4 0 -2.2 0.1 c -13.6 0.7 -20.8 8.4 -21.4 22.5 c 0 0.4 -0.1 0.8 -0.1 1.1 v 26 c 0 0.9 0.7 1.6 1.6 1.6 l 0 0 h 7.5 c 0.9 0 1.6 -0.7 1.6 -1.6 v -26.2 c 0 -7.7 4.8 -13.9 13.3 -13.9 s 12.8 5.9 12.8 13.8 V 309 c 0 0.9 0.7 1.6 1.6 1.6 l 0 0 h 7.4 c 0.9 0 1.6 -0.7 1.6 -1.6 c 0 0 0 0 0 0 l 0 0 v -26.7 C 189.2 269 181.2 259.4 165.6 259.4 L 165.6 259.4 z" stroke-linecap="round" />
</g>
		<g transform="matrix(1 0 0 1 271.82 5)"  >
<path style="stroke: none; stroke-width: 1; stroke-dasharray: none; stroke-linecap: butt; stroke-dashoffset: 0; stroke-linejoin: miter; stroke-miterlimit: 4; fill: rgb(48,50,59); fill-rule: nonzero; opacity: 1;"  transform=" translate(-444.82, -285)" d="M 467.6 305.3 l -2 -2.4 l -0.1 -0.1 l -15 -17.7 l 11.9 -14.1 l 0.1 -0.1 l 1.1 -1.4 l 1.6 -2 c 0.2 -0.2 0.4 -0.5 0.5 -0.7 l 1.5 -1.9 c 0.5 -0.7 0.4 -1.6 -0.2 -2.2 l -4.8 -3.9 c -0.7 -0.5 -1.6 -0.4 -2.2 0.2 c 0 0 0 0 0 0 l 0 0 l -1.7 2.1 c -0.1 0.1 -0.2 0.2 -0.3 0.3 l -13.4 16.7 l -10.6 -13.2 l 0 0 l 0 -0.1 l -2.8 -3.5 c -0.1 -0.1 -0.1 -0.1 -0.2 -0.2 l -1.8 -2.3 c -0.5 -0.7 -1.5 -0.8 -2.2 -0.2 l 0 0 l -4.8 3.9 c -0.7 0.5 -0.8 1.5 -0.2 2.2 l 2.2 2.6 l 0 0 l 14.7 17.6 l -11.6 13.7 l 0 0 l -3.3 4 c -0.2 0.2 -0.4 0.5 -0.5 0.7 l -1.5 1.9 c -0.5 0.7 -0.4 1.6 0.2 2.2 l 4.9 4 c 0.7 0.5 1.6 0.4 2.2 -0.2 l 0 0 l 2 -2.4 l 0.1 -0.1 l 0.8 -0.9 l 2.1 -2.6 c 0 0 0 -0.1 0.1 -0.1 l 10.6 -13.2 l 13.5 16.8 l 0 0 l 2 2.5 c 0.5 0.7 1.5 0.8 2.2 0.2 l 0 0 l 5 -4.1 C 468.1 306.9 468.2 305.9 467.6 305.3 C 467.6 305.2 467.6 305.2 467.6 305.3 L 467.6 305.3 L 467.6 305.3 z" stroke-linecap="round" />
</g>
		<g transform="matrix(1 0 0 1 42.9 -4.4)"  >
<path style="stroke: none; stroke-width: 1; stroke-dasharray: none; stroke-linecap: butt; stroke-dashoffset: 0; stroke-linejoin: miter; stroke-miterlimit: 4; fill: rgb(48,50,59); fill-rule: nonzero; opacity: 1;"  transform=" translate(-215.9, -275.6)" d="M 233.2 260.7 h -12.5 v -18.5 c 0 -0.9 -0.7 -1.6 -1.6 -1.6 h -7.5 c -0.9 0 -1.6 0.7 -1.6 1.6 c 0 0 0 0 0 0 l 0 0 v 18.5 h -11.4 c -0.9 0 -1.6 0.7 -1.6 1.6 l 0 0 l 0 0 v 5.7 c 0 0.9 0.7 1.6 1.6 1.6 l 0 0 h 11.4 V 309 c 0 0.9 0.7 1.6 1.6 1.6 l 0 0 h 7.5 c 0.9 0 1.6 -0.7 1.6 -1.6 v -39.5 h 12.5 c 0.9 0 1.6 -0.7 1.6 -1.6 c 0 0 0 0 0 0 l 0 0 v -5.7 C 234.8 261.4 234.1 260.7 233.2 260.7 L 233.2 260.7 L 233.2 260.7 z" stroke-linecap="round" />
</g>
		<g transform="matrix(1 0 0 1 -67.1 5.2)"  >
<path style="stroke: none; stroke-width: 1; stroke-dasharray: none; stroke-linecap: butt; stroke-dashoffset: 0; stroke-linejoin: miter; stroke-miterlimit: 4; fill: rgb(48,50,59); fill-rule: nonzero; opacity: 1;"  transform=" translate(-105.9, -285.2)" d="M 92.7 280.3 c 1 -7 6.3 -12.5 14.1 -12.5 c 7.7 0 12.8 5.8 13.6 12.5 H 92.7 z M 106.8 259.4 c -14.5 0 -25.3 11 -25.3 25.8 c 0 14.1 8.9 25.8 25.7 25.8 c 8.1 0 15.8 -3.3 20.1 -8.2 c 0.8 -0.9 2 -2.1 1.4 -3 c -1.2 -1.6 -2.6 -2.8 -4.4 -4.4 c -1 -0.9 -2.6 0.8 -3.5 1.7 c -3.7 3.5 -7.2 5.5 -13.1 5.5 c -9.4 0 -14.6 -5.9 -15.2 -13.6 h 33.7 c 3 0 4.1 -1.8 4.1 -3.6 C 130.3 270.8 121 259.4 106.8 259.4 L 106.8 259.4 z" stroke-linecap="round" />
</g>
</g>
</g>
</svg>