<svg viewBox="0 0 1649 563"
    xmlns="http://www.w3.org/2000/svg">
    <path d="M140.675 139.832H282.633V277.832H140.675V139.832Z" fill="white"></path>
    <path d="M0.000745453 277.832L140.93 277.832L140.93 139.832C63.0939 139.832 0.000751739 201.614 0.000745453 277.832Z" fill="white" fill-opacity="0.6"></path>
    <path d="M70.465 279.84C108.802 279.84 139.898 310.07 139.898 347.338C139.898 384.606 108.802 414.836 70.465 414.836C32.1281 414.836 1.03125 384.606 1.03125 347.338C1.03125 310.07 32.1281 279.84 70.465 279.84Z" fill="white"></path>
    <path d="M141.188 277.832C219.594 277.832 283.148 339.615 283.148 415.835L141.188 415.835L141.188 277.832Z" fill="#30323b"></path>
    <path d="M282.629 0.999988C358.224 0.999995 419.5 64.0335 419.5 141.796L282.629 141.796L282.629 0.999988Z" fill="white" fill-opacity="0.35"></path>
    <path d="M257.336 559.398C257.336 483.804 320.369 422.527 398.132 422.527L398.132 559.398L257.336 559.398Z" fill="white" fill-opacity="0.35"></path>
</svg>