<svg viewBox="0 0 1649 563" xmlns="http://www.w3.org/2000/svg">
  <path d="M1510.48 425.18L1510.48 283.223L1648.48 283.223L1648.48 425.18L1510.48 425.18Z" fill="white"></path>
  <path d="M1369.47 421.735L1369.47 562.664L1507.47 562.664C1507.47 484.828 1445.69 421.735 1369.47 421.735Z" fill="white" fill-opacity="0.6"></path>
  <path d="M1510.48 142.294L1510.48 283.223L1648.48 283.223C1648.48 205.387 1586.69 142.294 1510.48 142.294Z" fill="white" fill-opacity="0.6"></path>
  <path d="M1510.47 283.199H1369.54L1369.54 421.199C1447.37 421.199 1510.47 359.417 1510.47 283.199Z" fill="white" fill-opacity="0.6"></path>
  <path d="M1230.67 138.637L1371.6 138.637L1371.6 0.636719C1293.77 0.636726 1230.67 62.4186 1230.67 138.637Z" fill="white" fill-opacity="0.6"></path>
  <path d="M1298.11 286.703C1336.44 286.703 1367.54 316.933 1367.54 354.201C1367.54 391.469 1336.44 421.699 1298.11 421.699C1259.77 421.699 1228.67 391.469 1228.67 354.201C1228.67 316.933 1259.77 286.703 1298.11 286.703Z" fill="white"></path>
  <path d="M1370.48 211.726C1370.48 173.39 1400.71 142.293 1437.97 142.293C1475.24 142.293 1505.47 173.39 1505.47 211.726C1505.47 250.063 1475.24 281.16 1437.97 281.16C1400.71 281.16 1370.48 250.063 1370.48 211.726Z" fill="#30323b"></path>
  <path d="M1508.47 141.035C1432.88 141.035 1371.6 78.0016 1371.6 0.238949L1508.47 0.238966L1508.47 141.035Z" fill="white" fill-opacity="0.35"></path>
</svg>